ffmpeg started on 2025-05-12 at 18:17:51
Report written to "D:\Convert\FFMetrics\reports\ssim_report-6.txt"
Log level: 32
Command line:
ffmpeg -hide_banner -nostdin -i "G:\\\xc0\xed\xe8\xec\xe5\\\xce\xed\xe3\xee\xe8\xed\xe3\xe8\\!_35_\xcb\xe5\xf2\xee_2024\\DreamCast\\\xce\xf2\xf0\xff\xe4 \xf1\xe0\xec\xee\xf3\xe1\xe8\xe9\xf6 \xe8\xe7 \xe4\xf0\xf3\xe3\xee\xe3\xee \xec\xe8\xf0\xe0\\[DC] Isekai Suicide Squad - 05_Telegram_HEVC.mkv" -i "G:\\\xc0\xed\xe8\xec\xe5\\\xce\xed\xe3\xee\xe8\xed\xe3\xe8\\!_35_\xcb\xe5\xf2\xee_2024\\DreamCast\\\xce\xf2\xf0\xff\xe4 \xf1\xe0\xec\xee\xf3\xe1\xe8\xe9\xf6 \xe8\xe7 \xe4\xf0\xf3\xe3\xee\xe3\xee \xec\xe8\xf0\xe0\\[DC] Isekai Suicide Squad - 05_Telegram.mp4" -lavfi "[0:v]settb=AVTB,setpts=PTS-STARTPTS,format=pix_fmts=yuv420p10,fps=24000/1001,scale=1920:1080:flags=bicubic[main];[1:v]settb=AVTB,setpts=PTS-STARTPTS,format=pix_fmts=yuv420p,fps=24000/1001,scale=1920:1080:flags=bicubic[ref];[main][ref]ssim=eof_action=endall:stats_file='D\\:/Convert/FFMetrics/logs/ssim_logfile-6.txt'" -f null -
Input #0, matroska,webm, from 'G:\Аниме\Онгоинги\!_35_Лето_2024\DreamCast\Отряд самоубийц из другого мира\[DC] Isekai Suicide Squad - 05_Telegram_HEVC.mkv':
  Metadata:
    COMPATIBLE_BRANDS: isomiso2avc1mp41
    MAJOR_BRAND     : isom
    MINOR_VERSION   : 512
    ENCODER         : Lavf61.7.100
  Duration: 00:24:18.01, start: -0.021000, bitrate: 1601 kb/s
  Stream #0:0: Video: hevc (Main 10), yuv420p10le(tv, bt709, progressive), 1920x1080 [SAR 1:1 DAR 16:9], 23.98 fps, 23.98 tbr, 1k tbn (default)
      Metadata:
        HANDLER_NAME    : VideoHandler
        VENDOR_ID       : [0][0][0][0]
        ENCODER         : Lavc61.19.100 libx265
        BPS             : 1405113
        DURATION        : 00:24:17.914708333
        NUMBER_OF_FRAMES: 34955
        NUMBER_OF_BYTES : 256066851
        _STATISTICS_WRITING_APP: mkvpropedit v66.0.0 ('Josie') 64-bit
        _STATISTICS_WRITING_DATE_UTC: 2025-05-09 13:36:32
        _STATISTICS_TAGS: BPS DURATION NUMBER_OF_FRAMES NUMBER_OF_BYTES
  Stream #0:1: Audio: aac (LC), 48000 Hz, stereo, fltp (default)
      Metadata:
        HANDLER_NAME    : SoundHandler
        VENDOR_ID       : [0][0][0][0]
        ENCODER         : Lavc61.19.100 aac
        BPS             : 192573
        DURATION        : 00:24:18.005000000
        NUMBER_OF_FRAMES: 68345
        NUMBER_OF_BYTES : 35096695
        _STATISTICS_WRITING_APP: mkvpropedit v66.0.0 ('Josie') 64-bit
        _STATISTICS_WRITING_DATE_UTC: 2025-05-09 13:36:32
        _STATISTICS_TAGS: BPS DURATION NUMBER_OF_FRAMES NUMBER_OF_BYTES
Input #1, mov,mp4,m4a,3gp,3g2,mj2, from 'G:\Аниме\Онгоинги\!_35_Лето_2024\DreamCast\Отряд самоубийц из другого мира\[DC] Isekai Suicide Squad - 05_Telegram.mp4':
  Metadata:
    major_brand     : isom
    minor_version   : 512
    compatible_brands: isomiso2avc1mp41
    encoder         : Lavf61.1.100
  Duration: 00:24:17.98, start: 0.000000, bitrate: 3853 kb/s
  Stream #1:0[0x1](und): Video: h264 (High) (avc1 / 0x31637661), yuv420p(tv, bt709, progressive), 1920x1080 [SAR 1:1 DAR 16:9], 3705 kb/s, 23.98 fps, 23.98 tbr, 24k tbn (default)
      Metadata:
        handler_name    : VideoHandler
        vendor_id       : [0][0][0][0]
        encoder         : Lavc61.3.100 h264_qsv
  Stream #1:1[0x2](und): Audio: aac (HE-AACv2) (mp4a / 0x6134706D), 48000 Hz, stereo, fltp, 144 kb/s (default)
      Metadata:
        handler_name    : SoundHandler
        vendor_id       : [0][0][0][0]
Stream mapping:
  Stream #0:0 (hevc) -> settb:default
  Stream #1:0 (h264) -> settb:default
  ssim:default -> Stream #0:0 (wrapped_avframe)
  Stream #0:1 -> #0:1 (aac (native) -> pcm_s16le (native))
Output #0, null, to 'pipe:':
  Metadata:
    COMPATIBLE_BRANDS: isomiso2avc1mp41
    MAJOR_BRAND     : isom
    MINOR_VERSION   : 512
    encoder         : Lavf61.7.100
  Stream #0:0: Video: wrapped_avframe, yuv420p10le(tv, bt709, progressive), 1920x1080 [SAR 1:1 DAR 16:9], q=2-31, 200 kb/s, 23.98 fps, 23.98 tbn
      Metadata:
        encoder         : Lavc61.19.100 wrapped_avframe
  Stream #0:1: Audio: pcm_s16le, 48000 Hz, stereo, s16, 1536 kb/s (default)
      Metadata:
        HANDLER_NAME    : SoundHandler
        VENDOR_ID       : [0][0][0][0]
        _STATISTICS_TAGS: BPS DURATION NUMBER_OF_FRAMES NUMBER_OF_BYTES
        BPS             : 192573
        DURATION        : 00:24:18.005000000
        NUMBER_OF_FRAMES: 68345
        NUMBER_OF_BYTES : 35096695
        _STATISTICS_WRITING_APP: mkvpropedit v66.0.0 ('Josie') 64-bit
        _STATISTICS_WRITING_DATE_UTC: 2025-05-09 13:36:32
        encoder         : Lavc61.19.100 pcm_s16le
frame=  173 fps=0.0 q=-0.0 size=N/A time=00:00:07.21 bitrate=N/A speed=14.1x    frame=  371 fps=358 q=-0.0 size=N/A time=00:00:15.47 bitrate=N/A speed=14.9x    frame=  606 fps=389 q=-0.0 size=N/A time=00:00:25.27 bitrate=N/A speed=16.2x    frame=  848 fps=410 q=-0.0 size=N/A time=00:00:35.36 bitrate=N/A speed=17.1x    frame= 1072 fps=414 q=-0.0 size=N/A time=00:00:44.71 bitrate=N/A speed=17.3x    frame= 1299 fps=419 q=-0.0 size=N/A time=00:00:54.17 bitrate=N/A speed=17.5x    frame= 1550 fps=430 q=-0.0 size=N/A time=00:01:04.64 bitrate=N/A speed=17.9x    frame= 1792 fps=433 q=-0.0 size=N/A time=00:01:14.74 bitrate=N/A speed=18.1x    frame= 2039 fps=439 q=-0.0 size=N/A time=00:01:25.04 bitrate=N/A speed=18.3x    frame= 2285 fps=443 q=-0.0 size=N/A time=00:01:35.30 bitrate=N/A speed=18.5x    frame= 2519 fps=443 q=-0.0 size=N/A time=00:01:45.06 bitrate=N/A speed=18.5x    frame= 2777 fps=448 q=-0.0 size=N/A time=00:01:55.82 bitrate=N/A speed=18.7x    frame= 3022 fps=451 q=-0.0 size=N/A time=00:02:06.04 bitrate=N/A speed=18.8x    frame= 3290 fps=456 q=-0.0 size=N/A time=00:02:17.22 bitrate=N/A speed=  19x    frame= 3551 fps=459 q=-0.0 size=N/A time=00:02:28.10 bitrate=N/A speed=19.1x    frame= 3792 fps=460 q=-0.0 size=N/A time=00:02:38.15 bitrate=N/A speed=19.2x    frame= 4040 fps=460 q=-0.0 size=N/A time=00:02:48.50 bitrate=N/A speed=19.2x    frame= 4282 fps=461 q=-0.0 size=N/A time=00:02:58.59 bitrate=N/A speed=19.2x    frame= 4419 fps=451 q=-0.0 size=N/A time=00:03:04.30 bitrate=N/A speed=18.8x    frame= 4560 fps=442 q=-0.0 size=N/A time=00:03:10.19 bitrate=N/A speed=18.4x    frame= 4734 fps=437 q=-0.0 size=N/A time=00:03:17.44 bitrate=N/A speed=18.2x    frame= 4871 fps=430 q=-0.0 size=N/A time=00:03:23.16 bitrate=N/A speed=17.9x    frame= 5041 fps=425 q=-0.0 size=N/A time=00:03:30.25 bitrate=N/A speed=17.7x    frame= 5194 fps=420 q=-0.0 size=N/A time=00:03:36.63 bitrate=N/A speed=17.5x    frame= 5417 fps=420 q=-0.0 size=N/A time=00:03:45.93 bitrate=N/A speed=17.5x    frame= 5630 fps=420 q=-0.0 size=N/A time=00:03:54.81 bitrate=N/A speed=17.5x    frame= 5831 fps=419 q=-0.0 size=N/A time=00:04:03.20 bitrate=N/A speed=17.5x    frame= 6061 fps=420 q=-0.0 size=N/A time=00:04:12.79 bitrate=N/A speed=17.5x    frame= 6263 fps=419 q=-0.0 size=N/A time=00:04:21.21 bitrate=N/A speed=17.5x    frame= 6497 fps=420 q=-0.0 size=N/A time=00:04:30.97 bitrate=N/A speed=17.5x    frame= 6731 fps=421 q=-0.0 size=N/A time=00:04:40.73 bitrate=N/A speed=17.6x    frame= 6969 fps=422 q=-0.0 size=N/A time=00:04:50.66 bitrate=N/A speed=17.6x    frame= 7165 fps=421 q=-0.0 size=N/A time=00:04:58.84 bitrate=N/A speed=17.6x    frame= 7365 fps=420 q=-0.0 size=N/A time=00:05:07.18 bitrate=N/A speed=17.5x    frame= 7565 fps=419 q=-0.0 size=N/A time=00:05:15.52 bitrate=N/A speed=17.5x    frame= 7781 fps=419 q=-0.0 size=N/A time=00:05:24.53 bitrate=N/A speed=17.5x    frame= 8003 fps=419 q=-0.0 size=N/A time=00:05:33.79 bitrate=N/A speed=17.5x    frame= 8249 fps=421 q=-0.0 size=N/A time=00:05:44.05 bitrate=N/A speed=17.6x    frame= 8483 fps=422 q=-0.0 size=N/A time=00:05:53.81 bitrate=N/A speed=17.6x    frame= 8692 fps=422 q=-0.0 size=N/A time=00:06:02.52 bitrate=N/A speed=17.6x    frame= 8948 fps=423 q=-0.0 size=N/A time=00:06:13.20 bitrate=N/A speed=17.6x    frame= 9206 fps=425 q=-0.0 size=N/A time=00:06:23.96 bitrate=N/A speed=17.7x    frame= 9469 fps=427 q=-0.0 size=N/A time=00:06:34.93 bitrate=N/A speed=17.8x    frame= 9726 fps=429 q=-0.0 size=N/A time=00:06:45.65 bitrate=N/A speed=17.9x    frame= 9983 fps=430 q=-0.0 size=N/A time=00:06:56.37 bitrate=N/A speed=17.9x    frame=10249 fps=432 q=-0.0 size=N/A time=00:07:07.46 bitrate=N/A speed=  18x    frame=10497 fps=433 q=-0.0 size=N/A time=00:07:17.81 bitrate=N/A speed=18.1x    frame=10750 fps=434 q=-0.0 size=N/A time=00:07:28.36 bitrate=N/A speed=18.1x    frame=11007 fps=436 q=-0.0 size=N/A time=00:07:39.08 bitrate=N/A speed=18.2x    frame=11243 fps=436 q=-0.0 size=N/A time=00:07:48.92 bitrate=N/A speed=18.2x    frame=11421 fps=434 q=-0.0 size=N/A time=00:07:56.35 bitrate=N/A speed=18.1x    frame=11668 fps=435 q=-0.0 size=N/A time=00:08:06.65 bitrate=N/A speed=18.1x    frame=11912 fps=436 q=-0.0 size=N/A time=00:08:16.82 bitrate=N/A speed=18.2x    frame=12167 fps=437 q=-0.0 size=N/A time=00:08:27.46 bitrate=N/A speed=18.2x    frame=12378 fps=436 q=-0.0 size=N/A time=00:08:36.26 bitrate=N/A speed=18.2x    frame=12628 fps=437 q=-0.0 size=N/A time=00:08:46.69 bitrate=N/A speed=18.2x    frame=12897 fps=439 q=-0.0 size=N/A time=00:08:57.91 bitrate=N/A speed=18.3x    frame=13156 fps=440 q=-0.0 size=N/A time=00:09:08.71 bitrate=N/A speed=18.3x    frame=13408 fps=441 q=-0.0 size=N/A time=00:09:19.22 bitrate=N/A speed=18.4x    frame=13661 fps=442 q=-0.0 size=N/A time=00:09:29.77 bitrate=N/A speed=18.4x    frame=13924 fps=443 q=-0.0 size=N/A time=00:09:40.74 bitrate=N/A speed=18.5x    frame=14166 fps=443 q=-0.0 size=N/A time=00:09:50.84 bitrate=N/A speed=18.5x    frame=14422 fps=444 q=-0.0 size=N/A time=00:10:01.51 bitrate=N/A speed=18.5x    frame=14670 fps=444 q=-0.0 size=N/A time=00:10:11.86 bitrate=N/A speed=18.5x    frame=14935 fps=445 q=-0.0 size=N/A time=00:10:22.95 bitrate=N/A speed=18.6x    frame=15196 fps=447 q=-0.0 size=N/A time=00:10:33.79 bitrate=N/A speed=18.6x    frame=15424 fps=446 q=-0.0 size=N/A time=00:10:43.30 bitrate=N/A speed=18.6x    frame=15629 fps=446 q=-0.0 size=N/A time=00:10:51.85 bitrate=N/A speed=18.6x    frame=15851 fps=445 q=-0.0 size=N/A time=00:11:01.11 bitrate=N/A speed=18.6x    frame=16066 fps=445 q=-0.0 size=N/A time=00:11:10.08 bitrate=N/A speed=18.6x    frame=16250 fps=444 q=-0.0 size=N/A time=00:11:17.76 bitrate=N/A speed=18.5x    frame=16469 fps=444 q=-0.0 size=N/A time=00:11:26.89 bitrate=N/A speed=18.5x    frame=16711 fps=444 q=-0.0 size=N/A time=00:11:36.98 bitrate=N/A speed=18.5x    frame=16938 fps=444 q=-0.0 size=N/A time=00:11:46.45 bitrate=N/A speed=18.5x    frame=17187 fps=444 q=-0.0 size=N/A time=00:11:56.84 bitrate=N/A speed=18.5x    frame=17446 fps=445 q=-0.0 size=N/A time=00:12:07.64 bitrate=N/A speed=18.6x    frame=17702 fps=446 q=-0.0 size=N/A time=00:12:18.32 bitrate=N/A speed=18.6x    frame=17920 fps=446 q=-0.0 size=N/A time=00:12:27.41 bitrate=N/A speed=18.6x    frame=18156 fps=446 q=-0.0 size=N/A time=00:12:37.25 bitrate=N/A speed=18.6x    frame=18384 fps=446 q=-0.0 size=N/A time=00:12:46.76 bitrate=N/A speed=18.6x    frame=18620 fps=446 q=-0.0 size=N/A time=00:12:56.60 bitrate=N/A speed=18.6x    frame=18855 fps=446 q=-0.0 size=N/A time=00:13:06.41 bitrate=N/A speed=18.6x    frame=19064 fps=445 q=-0.0 size=N/A time=00:13:15.12 bitrate=N/A speed=18.6x    frame=19255 fps=444 q=-0.0 size=N/A time=00:13:23.09 bitrate=N/A speed=18.5x    frame=19411 fps=443 q=-0.0 size=N/A time=00:13:29.60 bitrate=N/A speed=18.5x    frame=19626 fps=442 q=-0.0 size=N/A time=00:13:38.56 bitrate=N/A speed=18.5x    frame=19855 fps=442 q=-0.0 size=N/A time=00:13:48.11 bitrate=N/A speed=18.5x    frame=20047 fps=442 q=-0.0 size=N/A time=00:13:56.12 bitrate=N/A speed=18.4x    frame=20248 fps=441 q=-0.0 size=N/A time=00:14:04.51 bitrate=N/A speed=18.4x    frame=20456 fps=441 q=-0.0 size=N/A time=00:14:13.18 bitrate=N/A speed=18.4x    frame=20660 fps=440 q=-0.0 size=N/A time=00:14:21.69 bitrate=N/A speed=18.4x    frame=20825 fps=439 q=-0.0 size=N/A time=00:14:28.57 bitrate=N/A speed=18.3x    frame=21007 fps=438 q=-0.0 size=N/A time=00:14:36.16 bitrate=N/A speed=18.3x    frame=21255 fps=438 q=-0.0 size=N/A time=00:14:46.51 bitrate=N/A speed=18.3x    frame=21484 fps=438 q=-0.0 size=N/A time=00:14:56.06 bitrate=N/A speed=18.3x    frame=21689 fps=438 q=-0.0 size=N/A time=00:15:04.61 bitrate=N/A speed=18.3x    frame=21902 fps=438 q=-0.0 size=N/A time=00:15:13.49 bitrate=N/A speed=18.3x    frame=22140 fps=438 q=-0.0 size=N/A time=00:15:23.42 bitrate=N/A speed=18.3x    frame=22341 fps=438 q=-0.0 size=N/A time=00:15:31.80 bitrate=N/A speed=18.2x    frame=22541 fps=437 q=-0.0 size=N/A time=00:15:40.14 bitrate=N/A speed=18.2x    frame=22764 fps=437 q=-0.0 size=N/A time=00:15:49.44 bitrate=N/A speed=18.2x    frame=23024 fps=438 q=-0.0 size=N/A time=00:16:00.29 bitrate=N/A speed=18.3x    frame=23235 fps=437 q=-0.0 size=N/A time=00:16:09.09 bitrate=N/A speed=18.2x    frame=23447 fps=437 q=-0.0 size=N/A time=00:16:17.93 bitrate=N/A speed=18.2x    frame=23658 fps=437 q=-0.0 size=N/A time=00:16:26.73 bitrate=N/A speed=18.2x    frame=23850 fps=436 q=-0.0 size=N/A time=00:16:34.74 bitrate=N/A speed=18.2x    frame=24082 fps=436 q=-0.0 size=N/A time=00:16:44.42 bitrate=N/A speed=18.2x    frame=24269 fps=436 q=-0.0 size=N/A time=00:16:52.21 bitrate=N/A speed=18.2x    frame=24451 fps=435 q=-0.0 size=N/A time=00:16:59.81 bitrate=N/A speed=18.1x    frame=24652 fps=434 q=-0.0 size=N/A time=00:17:08.19 bitrate=N/A speed=18.1x    frame=24883 fps=435 q=-0.0 size=N/A time=00:17:17.82 bitrate=N/A speed=18.1x    frame=25143 fps=435 q=-0.0 size=N/A time=00:17:28.67 bitrate=N/A speed=18.2x    frame=25388 fps=436 q=-0.0 size=N/A time=00:17:38.89 bitrate=N/A speed=18.2x    frame=25627 fps=436 q=-0.0 size=N/A time=00:17:48.85 bitrate=N/A speed=18.2x    frame=25843 fps=436 q=-0.0 size=N/A time=00:17:57.86 bitrate=N/A speed=18.2x    frame=26049 fps=435 q=-0.0 size=N/A time=00:18:06.46 bitrate=N/A speed=18.2x    frame=26281 fps=435 q=-0.0 size=N/A time=00:18:16.13 bitrate=N/A speed=18.2x    frame=26492 fps=435 q=-0.0 size=N/A time=00:18:24.93 bitrate=N/A speed=18.2x    frame=26653 fps=434 q=-0.0 size=N/A time=00:18:31.65 bitrate=N/A speed=18.1x    frame=26868 fps=434 q=-0.0 size=N/A time=00:18:40.61 bitrate=N/A speed=18.1x    frame=27070 fps=434 q=-0.0 size=N/A time=00:18:49.04 bitrate=N/A speed=18.1x    frame=27260 fps=433 q=-0.0 size=N/A time=00:18:56.96 bitrate=N/A speed=18.1x    frame=27473 fps=433 q=-0.0 size=N/A time=00:19:05.85 bitrate=N/A speed=18.1x    frame=27707 fps=433 q=-0.0 size=N/A time=00:19:15.61 bitrate=N/A speed=18.1x    frame=27923 fps=433 q=-0.0 size=N/A time=00:19:24.62 bitrate=N/A speed=18.1x    frame=28167 fps=433 q=-0.0 size=N/A time=00:19:34.79 bitrate=N/A speed=18.1x    frame=28430 fps=434 q=-0.0 size=N/A time=00:19:45.76 bitrate=N/A speed=18.1x    frame=28687 fps=434 q=-0.0 size=N/A time=00:19:56.48 bitrate=N/A speed=18.1x    frame=28934 fps=435 q=-0.0 size=N/A time=00:20:06.78 bitrate=N/A speed=18.1x    frame=29171 fps=435 q=-0.0 size=N/A time=00:20:16.67 bitrate=N/A speed=18.1x    frame=29422 fps=436 q=-0.0 size=N/A time=00:20:27.14 bitrate=N/A speed=18.2x    frame=29690 fps=436 q=-0.0 size=N/A time=00:20:38.32 bitrate=N/A speed=18.2x    frame=29950 fps=437 q=-0.0 size=N/A time=00:20:49.16 bitrate=N/A speed=18.2x    frame=30199 fps=437 q=-0.0 size=N/A time=00:20:59.54 bitrate=N/A speed=18.2x    frame=30441 fps=437 q=-0.0 size=N/A time=00:21:09.64 bitrate=N/A speed=18.2x    frame=30701 fps=438 q=-0.0 size=N/A time=00:21:20.48 bitrate=N/A speed=18.3x    frame=30968 fps=438 q=-0.0 size=N/A time=00:21:31.62 bitrate=N/A speed=18.3x    frame=31242 fps=439 q=-0.0 size=N/A time=00:21:43.05 bitrate=N/A speed=18.3x    frame=31499 fps=439 q=-0.0 size=N/A time=00:21:53.77 bitrate=N/A speed=18.3x    frame=31764 fps=440 q=-0.0 size=N/A time=00:22:04.82 bitrate=N/A speed=18.3x    frame=31980 fps=440 q=-0.0 size=N/A time=00:22:13.83 bitrate=N/A speed=18.3x    frame=32230 fps=440 q=-0.0 size=N/A time=00:22:24.25 bitrate=N/A speed=18.4x    frame=32469 fps=440 q=-0.0 size=N/A time=00:22:34.22 bitrate=N/A speed=18.4x    frame=32701 fps=440 q=-0.0 size=N/A time=00:22:43.90 bitrate=N/A speed=18.4x    frame=32851 fps=439 q=-0.0 size=N/A time=00:22:50.16 bitrate=N/A speed=18.3x    frame=33062 fps=439 q=-0.0 size=N/A time=00:22:58.96 bitrate=N/A speed=18.3x    frame=33250 fps=439 q=-0.0 size=N/A time=00:23:06.80 bitrate=N/A speed=18.3x    frame=33433 fps=438 q=-0.0 size=N/A time=00:23:14.43 bitrate=N/A speed=18.3x    frame=33613 fps=437 q=-0.0 size=N/A time=00:23:21.94 bitrate=N/A speed=18.2x    frame=33817 fps=437 q=-0.0 size=N/A time=00:23:30.45 bitrate=N/A speed=18.2x    frame=33998 fps=436 q=-0.0 size=N/A time=00:23:37.99 bitrate=N/A speed=18.2x    frame=34198 fps=436 q=-0.0 size=N/A time=00:23:46.34 bitrate=N/A speed=18.2x    frame=34366 fps=435 q=-0.0 size=N/A time=00:23:53.34 bitrate=N/A speed=18.2x    frame=34588 fps=435 q=-0.0 size=N/A time=00:24:02.60 bitrate=N/A speed=18.2x    frame=34804 fps=435 q=-0.0 size=N/A time=00:24:11.61 bitrate=N/A speed=18.2x    [Parsed_ssim_10 @ 000002cdebee6200] SSIM Y:0.991544 (20.728552) U:0.992613 (21.315437) V:0.993116 (21.621513) All:0.991984 (20.960662)
[out#0/null @ 000002cdec310640] video:15020KiB audio:273380KiB subtitle:0KiB other streams:0KiB global headers:0KiB muxing overhead: unknown
frame=34955 fps=435 q=-0.0 Lsize=N/A time=00:24:17.91 bitrate=N/A speed=18.2x    
